/* XPM */
static char * cddb_xpm[] = {
"48 60 744 2",
"  	c None",
". 	c #020204",
"+ 	c #FCFDFB",
"@ 	c #D59E9C",
"# 	c #FEFEFE",
"$ 	c #FFFFFF",
"% 	c #FAFAFA",
"& 	c #E5E8E6",
"* 	c #E1E3E2",
"= 	c #F1F3F2",
"- 	c #F6F7F8",
"; 	c #F8F8F8",
"> 	c #FDFDFD",
", 	c #F8F9F9",
"' 	c #F6F6F7",
") 	c #FBFBFC",
"! 	c #7795A5",
"~ 	c #D9D9D9",
"{ 	c #838383",
"] 	c #494949",
"^ 	c #3F403F",
"/ 	c #353635",
"( 	c #343534",
"_ 	c #797979",
": 	c #F6F6F6",
"< 	c #909091",
"[ 	c #2C2C2C",
"} 	c #3E3E3E",
"| 	c #4B4B4B",
"1 	c #898989",
"2 	c #D9DAD9",
"3 	c #FCFDFC",
"4 	c #B5B6B6",
"5 	c #2D2D2D",
"6 	c #373737",
"7 	c #4C4C4C",
"8 	c #767676",
"9 	c #C7C8C9",
"0 	c #C6C7C8",
"a 	c #3C3C3C",
"b 	c #4D4D4D",
"c 	c #939393",
"d 	c #ECECEC",
"e 	c #5C7687",
"f 	c #C7C7C7",
"g 	c #5C5D5D",
"h 	c #B9B9BA",
"i 	c #D4D4D4",
"j 	c #C9C9C9",
"k 	c #8A8A8A",
"l 	c #F0F0F0",
"m 	c #ABABAB",
"n 	c #121212",
"o 	c #B0B0B0",
"p 	c #969B97",
"q 	c #434343",
"r 	c #2C2E2C",
"s 	c #A9AAA9",
"t 	c #FBFBFB",
"u 	c #D1D1D2",
"v 	c #929292",
"w 	c #A7A7A7",
"x 	c #555555",
"y 	c #202020",
"z 	c #868687",
"A 	c #F1F2F3",
"B 	c #DADADA",
"C 	c #2F2F2F",
"D 	c #969696",
"E 	c #A1A1A1",
"F 	c #242424",
"G 	c #5B5B5B",
"H 	c #F3F4F3",
"I 	c #D6D7D8",
"J 	c #2B2B2B",
"K 	c #F5F5F5",
"L 	c #E0E4E1",
"M 	c #C2C2C2",
"N 	c #181818",
"O 	c #E5E5E5",
"P 	c #F2F6F3",
"Q 	c #666868",
"R 	c #1B1B1B",
"S 	c #B7B8B9",
"T 	c #DEDEDE",
"U 	c #222222",
"V 	c #B5B5B5",
"W 	c #8F8F8F",
"X 	c #131313",
"Y 	c #858585",
"Z 	c #DFDFDF",
"` 	c #BBBBBB",
" .	c #999999",
"..	c #030303",
"+.	c #C5C9C6",
"@.	c #747575",
"#.	c #262626",
"$.	c #EFF0F1",
"%.	c #E8E8E8",
"&.	c #3D3D3D",
"*.	c #424242",
"=.	c #B1B1B1",
"-.	c #646464",
";.	c #1A1A1A",
">.	c #E6E7E8",
",.	c #FBFCFC",
"'.	c #E3E4E5",
").	c #FCFCFC",
"!.	c #F0F3F0",
"~.	c #5E5E5E",
"{.	c #0A0A0A",
"].	c #E2E7E3",
"^.	c #151515",
"/.	c #B4B4B4",
"(.	c #343434",
"_.	c #8B8C8D",
":.	c #8E8E8F",
"<.	c #454646",
"[.	c #C1C1C1",
"}.	c #F3F4F5",
"|.	c #B9CDD9",
"1.	c #D5E1E9",
"2.	c #F9FAFC",
"3.	c #252626",
"4.	c #777777",
"5.	c #000000",
"6.	c #D7D7D7",
"7.	c #D8D8D8",
"8.	c #A2A2A2",
"9.	c #323232",
"0.	c #6F6F6F",
"a.	c #5A5A5A",
"b.	c #353535",
"c.	c #B2B6B3",
"d.	c #D8E0EA",
"e.	c #4C77B4",
"f.	c #7E9EC9",
"g.	c #F5F6F7",
"h.	c #F1F5F2",
"i.	c #626262",
"j.	c #A5A5A5",
"k.	c #0B0B0B",
"l.	c #E5EAE6",
"m.	c #C9CACB",
"n.	c #1D1D1D",
"o.	c #AFAFAF",
"p.	c #F9FAFA",
"q.	c #9A9B9C",
"r.	c #BABBBC",
"s.	c #A8BCD7",
"t.	c #08459A",
"u.	c #4874B1",
"v.	c #DEE4EC",
"w.	c #212121",
"x.	c #EAEAEA",
"y.	c #EFEFEF",
"z.	c #505050",
"A.	c #484A48",
"B.	c #7E7E7F",
"C.	c #1F201F",
"D.	c #E7EBE8",
"E.	c #ECEDED",
"F.	c #363636",
"G.	c #6B6B6B",
"H.	c #C1D1DB",
"I.	c #144F9F",
"J.	c #1750A0",
"K.	c #5E85BB",
"L.	c #F5F7FB",
"M.	c #D3D3D3",
"N.	c #737373",
"O.	c #EAEBEB",
"P.	c #FDFDFE",
"Q.	c #F2F2F2",
"R.	c #A6AAA6",
"S.	c #E5E6E7",
"T.	c #F2F3F2",
"U.	c #B9BBBA",
"V.	c #B2B2B2",
"W.	c #A2A3A5",
"X.	c #8D8E8F",
"Y.	c #FDFEFE",
"Z.	c #707171",
"`.	c #FBFCFD",
" +	c #86A7C7",
".+	c #134E9E",
"++	c #2058A4",
"@+	c #2057A3",
"#+	c #CBD8E9",
"$+	c #B8B9BA",
"%+	c #454546",
"&+	c #919192",
"*+	c #939394",
"=+	c #4C4C4D",
"-+	c #E4E4E4",
";+	c #AEAEAE",
">+	c #969796",
",+	c #424543",
"'+	c #BABABA",
")+	c #D5D5D5",
"!+	c #171717",
"~+	c #8B8B8B",
"{+	c #5D5D5D",
"]+	c #272727",
"^+	c #979999",
"/+	c #F7F9F7",
"(+	c #7F7F7F",
"_+	c #A1A1A2",
":+	c #373838",
"<+	c #282828",
"[+	c #B2CBD5",
"}+	c #245BA6",
"|+	c #1D56A3",
"1+	c #2159A5",
"2+	c #CAD7E9",
"3+	c #828383",
"4+	c #454545",
"5+	c #4E4F4F",
"6+	c #7A7A7A",
"7+	c #C7C8C8",
"8+	c #9EA19E",
"9+	c #4C514D",
"0+	c #545856",
"a+	c #6D6D6D",
"b+	c #AAAAAA",
"c+	c #F3F3F3",
"d+	c #BABBBB",
"e+	c #4B4E4C",
"f+	c #515652",
"g+	c #5D5F5E",
"h+	c #9B9B9B",
"i+	c #EAEBEC",
"j+	c #FCFCFD",
"k+	c #C9CCCC",
"l+	c #575C58",
"m+	c #616262",
"n+	c #9D9E9D",
"o+	c #E8ECE9",
"p+	c #ECF1F2",
"q+	c #8BA7CF",
"r+	c #225AA4",
"s+	c #1E56A3",
"t+	c #1751A0",
"u+	c #5881B9",
"v+	c #F5F6F8",
"w+	c #F8FAF9",
"x+	c #F1F1F1",
"y+	c #EDEDED",
"z+	c #F3F3F4",
"A+	c #FCFDFD",
"B+	c #F7FAF8",
"C+	c #F4F8F5",
"D+	c #F6F8F6",
"E+	c #F4F5F4",
"F+	c #F9FAF9",
"G+	c #FAFBFA",
"H+	c #FBFCFB",
"I+	c #E9F0F2",
"J+	c #ABBED8",
"K+	c #4C79B2",
"L+	c #1952A1",
"M+	c #1E57A3",
"N+	c #1752A1",
"O+	c #455D7E",
"P+	c #CEBAA1",
"Q+	c #FEFDFC",
"R+	c #D6DFE3",
"S+	c #A8BDD8",
"T+	c #DEEBE4",
"U+	c #F7F8FB",
"V+	c #F4F5F8",
"W+	c #C5D9DB",
"X+	c #82A0C8",
"Y+	c #3E71AA",
"Z+	c #1851A1",
"`+	c #1953A1",
" @	c #1751A1",
".@	c #20549B",
"+@	c #606671",
"@@	c #DD8B1E",
"#@	c #F7A12F",
"$@	c #FDF0DE",
"%@	c #E7F2EA",
"&@	c #8BA8CB",
"*@	c #6087BB",
"=@	c #6C91BA",
"-@	c #9FB6D5",
";@	c #BECEE4",
">@	c #DAE3EE",
",@	c #F4F5F5",
"'@	c #EDF0F3",
")@	c #D1DCEB",
"!@	c #B7C8E1",
"~@	c #8BA7CC",
"{@	c #557FB8",
"]@	c #2B60A8",
"^@	c #114C9E",
"/@	c #154FA0",
"(@	c #1852A1",
"_@	c #265CA6",
":@	c #718BAD",
"<@	c #CF8F3A",
"[@	c #F6930F",
"}@	c #F69513",
"|@	c #F7991C",
"1@	c #FCE4C4",
"2@	c #EAEEF4",
"3@	c #BACAE1",
"4@	c #7A9BC7",
"5@	c #4673B2",
"6@	c #3466AB",
"7@	c #3D6DAF",
"8@	c #537DB8",
"9@	c #6289BE",
"0@	c #7194C4",
"a@	c #85A3CC",
"b@	c #94AFD1",
"c@	c #ACBED6",
"d@	c #A2B9CF",
"e@	c #91ADD0",
"f@	c #7E9DC9",
"g@	c #6E91C2",
"h@	c #6087BD",
"i@	c #4774B3",
"j@	c #3164AA",
"k@	c #1F56A3",
"l@	c #154F9F",
"m@	c #124D9E",
"n@	c #124E9F",
"o@	c #3469A7",
"p@	c #688DBF",
"q@	c #9FB5D5",
"r@	c #E2DDD7",
"s@	c #F2AF55",
"t@	c #F69614",
"u@	c #F69512",
"v@	c #F7A02B",
"w@	c #FDEED9",
"x@	c #E9EEF5",
"y@	c #D0DBEB",
"z@	c #AABFD3",
"A@	c #7194C2",
"B@	c #3868AD",
"C@	c #255DA3",
"D@	c #1C54A1",
"E@	c #1A52A1",
"F@	c #124C9E",
"G@	c #1650A0",
"H@	c #104C9E",
"I@	c #0E4A9D",
"J@	c #104C9D",
"K@	c #134D9E",
"L@	c #3668AC",
"M@	c #4F7AB6",
"N@	c #698DC0",
"O@	c #98B1D2",
"P@	c #C6D3E6",
"Q@	c #E0EAED",
"R@	c #FAF5ED",
"S@	c #FBDDB5",
"T@	c #F7A83E",
"U@	c #F0930F",
"V@	c #EFC582",
"W@	c #FCF0E0",
"X@	c #FEFAF4",
"Y@	c #F7F8F9",
"Z@	c #E7F0E9",
"`@	c #D0DDE7",
" #	c #C3D1E6",
".#	c #B8C9E1",
"+#	c #A6BCDA",
"@#	c #9EB5D5",
"##	c #92ABCE",
"$#	c #91ABCD",
"%#	c #95AED0",
"&#	c #A3BAD9",
"*#	c #B5C7E0",
"=#	c #BDCDE3",
"-#	c #C6D4E7",
";#	c #DAE4EF",
">#	c #F0F2F4",
",#	c #FDF4E8",
"'#	c #FBD6A4",
")#	c #F8AC48",
"!#	c #F69410",
"~#	c #F59513",
"{#	c #F19614",
"]#	c #809524",
"^#	c #73B777",
"/#	c #F8F8F9",
"(#	c #FDF3E5",
"_#	c #FAD098",
":#	c #F9CA8A",
"<#	c #FBDAAF",
"[#	c #FCEAD0",
"}#	c #FEFCFA",
"|#	c #FDF3E6",
"1#	c #FCE6C9",
"2#	c #FAD19B",
"3#	c #F8B356",
"4#	c #F69C21",
"5#	c #F6930D",
"6#	c #F6930E",
"7#	c #BD971F",
"8#	c #45952E",
"9#	c #14922E",
"0#	c #1F9638",
"a#	c #C9E6CF",
"b#	c #FEFBF8",
"c#	c #FCECD5",
"d#	c #FACC8F",
"e#	c #F8B254",
"f#	c #F8AD49",
"g#	c #F8B964",
"h#	c #FAC682",
"i#	c #FAD5A4",
"j#	c #FBE2C1",
"k#	c #FDECD5",
"l#	c #FDEFDB",
"m#	c #FDF4E7",
"n#	c #FDF5E9",
"o#	c #FDF6ED",
"p#	c #FDF7EE",
"q#	c #FDF5EB",
"r#	c #FDF5EA",
"s#	c #FDF0DF",
"t#	c #FDEDD9",
"u#	c #FDEBD2",
"v#	c #FBDDB6",
"w#	c #FAD099",
"x#	c #F9C379",
"y#	c #F7A435",
"z#	c #F79A1E",
"A#	c #F69411",
"B#	c #F6940F",
"C#	c #F69615",
"D#	c #F7A231",
"E#	c #F9BE6F",
"F#	c #B7BC8B",
"G#	c #319939",
"H#	c #12922E",
"I#	c #1D9536",
"J#	c #C7E5CE",
"K#	c #FEF8F1",
"L#	c #F9CA8B",
"M#	c #F8B55B",
"N#	c #F6A12D",
"O#	c #F69616",
"P#	c #F79B20",
"Q#	c #F79E28",
"R#	c #F8A536",
"S#	c #F8A638",
"T#	c #F8A73C",
"U#	c #F7AB46",
"V#	c #F7AE4C",
"W#	c #F8A83F",
"X#	c #F8A83E",
"Y#	c #F6910A",
"Z#	c #F6920C",
"`#	c #F69717",
" $	c #F69A1E",
".$	c #F8AB46",
"+$	c #F9C177",
"@$	c #FBDEB6",
"#$	c #F3ECDE",
"$$	c #B0D7B8",
"%$	c #26914D",
"&$	c #10912C",
"*$	c #49A95D",
"=$	c #EDF4EF",
"-$	c #FCEAD3",
";$	c #FBDEB5",
">$	c #FAD096",
",$	c #F8C075",
"'$	c #F8B761",
")$	c #F8AF4D",
"!$	c #F8A940",
"~$	c #F7A334",
"{$	c #F79D26",
"]$	c #F79819",
"^$	c #F6991C",
"/$	c #F69D26",
"($	c #F7A230",
"_$	c #F8A83D",
":$	c #F8AB45",
"<$	c #F8BE70",
"[$	c #FACD8F",
"}$	c #FBDAAE",
"|$	c #FCE7CC",
"1$	c #FDF8F2",
"2$	c #F7F8F8",
"3$	c #B4CED0",
"4$	c #509F79",
"5$	c #0E8F2A",
"6$	c #11912D",
"7$	c #32832C",
"8$	c #C7AA94",
"9$	c #CBE7D1",
"0$	c #B9DBC0",
"a$	c #D8EDDC",
"b$	c #F4F7F6",
"c$	c #FEFDFB",
"d$	c #FEFBF7",
"e$	c #FEF7EE",
"f$	c #FEF6EB",
"g$	c #FEF4E8",
"h$	c #FEF4E7",
"i$	c #FEF5E9",
"j$	c #FEF7ED",
"k$	c #FEF8F0",
"l$	c #FEF9F2",
"m$	c #FEFAF5",
"n$	c #EBF3EE",
"o$	c #CCE6D1",
"p$	c #8BC898",
"q$	c #3BA351",
"r$	c #179036",
"s$	c #1B8F2F",
"t$	c #586B24",
"u$	c #C8250E",
"v$	c #E6382A",
"w$	c #FCEBE0",
"x$	c #F9FCFA",
"y$	c #D2E7D6",
"z$	c #8CCA99",
"A$	c #6BB87C",
"B$	c #84B7A9",
"C$	c #D7E8DB",
"D$	c #E8F4EB",
"E$	c #EEF7F0",
"F$	c #F8FAF8",
"G$	c #F5F9F6",
"H$	c #ECF6EE",
"I$	c #E6F3E9",
"J$	c #CEE3D3",
"K$	c #9FCBB5",
"L$	c #7AB996",
"M$	c #3EA354",
"N$	c #23983B",
"O$	c #159330",
"P$	c #10902C",
"Q$	c #14922F",
"R$	c #22983B",
"S$	c #5AA45D",
"T$	c #9E542A",
"U$	c #D81B07",
"V$	c #E31405",
"W$	c #E41F14",
"X$	c #F9CBC0",
"Y$	c #DEEFE1",
"Z$	c #9CCFA7",
"`$	c #4FA274",
" %	c #339C4E",
".%	c #319F48",
"+%	c #42A656",
"@%	c #64B376",
"#%	c #7ABD88",
"$%	c #98CFA3",
"%%	c #A3D4AD",
"&%	c #ACC7D2",
"*%	c #B3D0CD",
"=%	c #B7DDBF",
"-%	c #AFC7D6",
";%	c #ABCFC5",
">%	c #9FD2A9",
",%	c #90CA9B",
"'%	c #79BA86",
")%	c #5CB16E",
"!%	c #3CA451",
"~%	c #2F9E47",
"{%	c #1C9636",
"]%	c #0D8E29",
"^%	c #0F902B",
"/%	c #0B8D27",
"(%	c #1E9738",
"_%	c #48AA5D",
":%	c #8EC799",
"<%	c #D0E5CE",
"[%	c #ED746A",
"}%	c #E3140A",
"|%	c #E52119",
"1%	c #F9CFCC",
"2%	c #CAE2D3",
"3%	c #9FC5BE",
"4%	c #72BA81",
"5%	c #4AA95E",
"6%	c #339F49",
"7%	c #24983C",
"8%	c #16912F",
"9%	c #0C8D28",
"0%	c #0B8D26",
"a%	c #088B22",
"b%	c #078A23",
"c%	c #0A8C25",
"d%	c #0D8F29",
"e%	c #179331",
"f%	c #279B40",
"g%	c #299648",
"h%	c #3E9F5C",
"i%	c #62B374",
"j%	c #8ECA9B",
"k%	c #BCDFC4",
"l%	c #E9EFEA",
"m%	c #FAF6F5",
"n%	c #F6BBB8",
"o%	c #E9483F",
"p%	c #E21005",
"q%	c #E21304",
"r%	c #E20E04",
"s%	c #F0807A",
"t%	c #F7E6E5",
"u%	c #FCEDEC",
"v%	c #FAFBFB",
"w%	c #EFF7F1",
"x%	c #E5F3E8",
"y%	c #DCEDDF",
"z%	c #CDE2D1",
"A%	c #B2D8BA",
"B%	c #9CD1A8",
"C%	c #8CC998",
"D%	c #82B6A6",
"E%	c #7DAAB3",
"F%	c #7FB0AD",
"G%	c #88C795",
"H%	c #9BD0A6",
"I%	c #ADD7B6",
"J%	c #C1DBC8",
"K%	c #D9EADC",
"L%	c #E1EFE8",
"M%	c #EBF3F1",
"N%	c #F6F9F7",
"O%	c #FDFAFA",
"P%	c #FDEDE1",
"Q%	c #F5AEAB",
"R%	c #EB554D",
"S%	c #E41E14",
"T%	c #E21204",
"U%	c #E21104",
"V%	c #E41A0F",
"W%	c #EF7E76",
"X%	c #FCEAE9",
"Y%	c #FADCDB",
"Z%	c #F3A39E",
"`%	c #F2928A",
" &	c #F7BEB9",
".&	c #FCEDE9",
"+&	c #FDF6F5",
"@&	c #FEFBFB",
"#&	c #FEFEFD",
"$&	c #FEF8F8",
"%&	c #FDF3F2",
"&&	c #FBE6E1",
"*&	c #F4A7A2",
"=&	c #EE736A",
"-&	c #E9462F",
";&	c #E3180B",
">&	c #E21003",
",&	c #E31209",
"'&	c #E9463B",
")&	c #F6B5A7",
"!&	c #FEFAF8",
"~&	c #F9CEC0",
"{&	c #EE7767",
"]&	c #E84136",
"^&	c #E9453F",
"/&	c #EE706A",
"(&	c #F39A92",
"_&	c #F9C9B4",
":&	c #F8CAC4",
"<&	c #FAE0DE",
"[&	c #F9EFEE",
"}&	c #FBE9E7",
"|&	c #FAD9D7",
"1&	c #F7BDBA",
"2&	c #F5B0AB",
"3&	c #F18F86",
"4&	c #EB5E57",
"5&	c #E7342C",
"6&	c #E20F03",
"7&	c #E52918",
"8&	c #ED6750",
"9&	c #F6B2AE",
"0&	c #FEFBF9",
"a&	c #F6B8B5",
"b&	c #EF7E78",
"c&	c #E9514B",
"d&	c #E7372E",
"e&	c #E5221A",
"f&	c #E52116",
"g&	c #E5261E",
"h&	c #E73A32",
"i&	c #E9453D",
"j&	c #E94841",
"k&	c #EA4D46",
"l&	c #EB564F",
"m&	c #E94842",
"n&	c #E9433A",
"o&	c #E7382C",
"p&	c #E6291C",
"q&	c #E42214",
"r&	c #E3140C",
"s&	c #E31506",
"t&	c #E20E03",
"u&	c #E20D02",
"v&	c #E41B0E",
"w&	c #E52921",
"x&	c #E84036",
"y&	c #F5ADA9",
"z&	c #FBE6E3",
"A&	c #FEF9F6",
"B&	c #FCF3F3",
"C&	c #FADCDA",
"D&	c #F8CAC5",
"E&	c #F4AAA3",
"F&	c #F0817C",
"G&	c #EC655F",
"H&	c #EA4E47",
"I&	c #E73930",
"J&	c #E62C22",
"K&	c #E5261C",
"L&	c #E41E19",
"M&	c #E41D17",
"N&	c #E41A14",
"O&	c #E41C15",
"P&	c #E41F18",
"Q&	c #E5221B",
"R&	c #E5281C",
"S&	c #E62E21",
"T&	c #E94B40",
"U&	c #EC615A",
"V&	c #F28E70",
"W&	c #F1908A",
"X&	c #F7C5BE",
"Y&	c #FCE7E6",
"Z&	c #FBF9F6",
"`&	c #FBE4E3",
" *	c #FAD8D6",
".*	c #F9D3D1",
"+*	c #F9CCC9",
"@*	c #F9D1CE",
"#*	c #FBE0DE",
"$*	c #FBEDED",
"%*	c #4E778B",
"&*	c #7D7D7C",
". . . . . . . . . . . . . . . . . . . . . . . . . . . . . . . . . . . . . . . . . . . . . . . . ",
". . . . . . . . . . . . . . . . . . . . . . . . . . . . . . . . . . . . . . . . . . . . . . . . ",
". . . . . . . . . . . . . . . . . . . . + + + + . . + + + + . . . + + + + . . . + + + + + . . . ",
". . . . . . . . . . . . . . . . . . . + + . . + + . + + . + + . . + + . + + . . + + . . + + . . ",
". . . . . . . . . . . . . . . . . . + + . . . . + . + + . . + + . + + . . + + . + + . . + + . . ",
". . . . . . . . . . . . . . . . . . + + . . . . . . + + . . + + . + + . . + + . + + + + + . . . ",
". . . . . . . . . . . . . . . . . . + + . . . . . . + + . . + + . + + . . + + . + + . . + + . . ",
". . . . . . . . . . . . . . . . . . + + . . . . + . + + . . + + . + + . . + + . + + . . + + . . ",
". . . . . . . . . . . . . . . . . . . + + . . + + . + + . + + . . + + . + + . . + + . . + + . . ",
". . . . . . . . . . . . . . . . . . . . + + + + . . + + + + . . . + + + + . . . + + + + + . . . ",
". . . . . . . . . . . . . . . . . . . . . . . . . . . . . . . . . . . . . . . . . . . . . . . . ",
". . . . . . . . . . . . . . . . . . . . . . . . . . . . . . . . . . . . . . . . . . . . . . . . ",
"                                                                                                ",
"                                                                                                ",
"                                                                                                ",
"                                                                                                ",
"                                                                                                ",
"                                                                                                ",
"                                                                                                ",
"    @ @ @ @ @ @ @ @ @ @ @ @ @ @ @ @ @ @ @ @ @ @ @ @ @ @ @ @ @ @ @ @ @ @ @ @ @ @ @ @ @ @ @ @     ",
"  @ # # $ $ # % & * = # $ - ; ; > $ $ $ $ $ , ' ; > # # # # # ) ' ; % # # # # # # $ $ $ $ $ !   ",
"  @ # $ # ~ { ] ^ / ( _ : < [ } | 1 2 3 $ $ 4 5 6 7 8 9 % # # 0 a } b c d # # # # $ $ $ $ $ e   ",
"  @ # > f [ g h i j k | l m n o p q r s t $ u n v w x y z A # B C D E F G H # # # $ $ $ $ $ e   ",
"  @ $ I J _ K $ # # > L % M N O $ P Q R S # T U V # > W X Y # Z 6 ` #  ...+.# # # $ $ $ $ $ e   ",
"  @ $ @.#.$.# $ # # # # $ M N O $ $ %.&.*.t T U =.# # t -.;.>.Z 6 ` ,.< 5 '.# ).# $ $ $ $ $ e   ",
"  @ !.( ~.$ # $ # # # # $ M N O $ $ $ c {.].T U =.# # # ` ^./.Z (._.:.<.[.> # }.|.1.2.$ $ $ e   ",
"  @ %.3.4.$ # $ # # # # $ M N O $ $ $ /.5.6.T U =.# # # 7.#.8.Z 9.0.a.b.c.).# # d.e.f.g.# $ e   ",
"  @ h./ i.$ # $ # # # # $ M N O $ $ $ j.k.l.T U =.# # # m.n.o.Z (.w p.q.N r.# # # s.t.u.v.$ e   ",
"  @ # 8 w.x.# $ # # # > # M N O $ $ y.z.A.% T U =.# # ) B.C.D.Z (.w # E.F.G.% # # H.I.J.K.L.e   ",
"  @ $ M.J N.O.P.# # Q.R.S.M N O # T._ F U.# T w.V.# : W.F X.# Z (.w Y.7.y Z.).# `. +.+++@+#+e   ",
"  @ # > $+R %+&+o.*+=+;.-+V X ;+>+,+F.'+$ $ )+!+~+8.{+]+^+/+# B [ (+_+:+<+B # # [+}+|+1+@+2+e   ",
"  @ # # > Z 3+] 4+5+6+7+,.8+9+0+a+b+c+# $ $ d+e+f+g+h+i+j+# # k+l+f+m+n+o+# p+q+r+s+1+t+u+v+e   ",
"  @ # w+> $ > x+y+z+A+# $ B+C+D+> $ $ $ $ $ , E+C+F+# # # # # G+C+C+p.H+I+J+K+L+M+++N+O+P+Q+e   ",
"  @ # R+S+T+U+A+# # # # $ $ $ $ $ $ $ $ $ $ $ # # # # # # # # Y.`.V+W+X+Y+Z+`+++ @.@+@@@#@$@e   ",
"  @ # # %@&@*@=@-@;@>@,@# $ $ $ $ $ $ $ $ $ $ # # # # ).'@)@!@~@{@]@^@/@(@t+.+_@:@<@[@}@|@1@e   ",
"  @ $ # $ 3 2@3@4@5@6@7@8@9@0@a@b@c@c@c@c@c@d@e@f@g@h@i@j@k@l@m@l@I.n@++o@p@q@r@s@}@t@u@v@w@e   ",
"  @ $ # $ $ # $ ).x@y@z@A@8@B@C@D@E@J.F@G@t+G@m@H@I@J@G@K@L+}+L@M@N@O@P@Q@R@S@T@u@t@t@U@V@Q+e   ",
"  @ $ W@X@$ # $ # # # # $ $ Y@Z@`@ #.#+#@###$#$#$#%#&#*#=#-#;#>#).# # ,#'#)#}@!#~#t@{#]#^#/#e   ",
"  @ # (#_#:#<#[#X@# # # $ $ $ $ $ $ $ $ # # # # # # # # # # }#|#1#2#3#4#5#u@}@6#u@7#8#9#0#a#e   ",
"  @ # # b#c#d#e#f#g#h#i#j#k#l#(#m#n#o#p#p#q#r#|#s#t#u#v#w#x#e#y#z#A#6#B#u@C#D#E#F#G#H#H#I#J#e   ",
"  @ # $ # $ # K#1@L#M#N#O#P#Q#R#S#T#U#V#V#W#X#R#v@P#O#6#6#6#Y#Z#[@`# $.$+$@$#$$$%$&$H#H#*$=$e   ",
"  @ # # # $ # $ # # # b#-$;$>$,$'$)$!$~${${$]$O#^$/$($_$:$3#<$[$}$|$1$# 2$3$4$5$6$H#H#7$8$$ e   ",
"  @ $ 9$0$a$b$$ # # # # $ $ $ c$d$X@K#e$f$f$g$h$i$f$j$k$l$m$}## # n$o$p$q$r$H#6$6$s$t$u$v$w$e   ",
"  @ $ x$y$z$A$B$$$C$D$E$F$).$ $ $ $ $ $ $ $ $ # # # t G$H$I$J$K$L$M$N$O$P$&$Q$R$S$T$U$V$W$X$e   ",
"  @ # # # $ Y$Z$`$ %.%+%@%#%$%%%&%*%=%=%=%=%-%;%>%,%'%)%!%~%{%]%P$6$^%/%(%_%:%<%[%}%V$V$|%1%e   ",
"  @ # # # $ # # A+C+2%3%4%5%6%7%8%9%0%a%a%a%b%b%c%d%]%^%6$e%f%g%h%i%j%k%l%m%n%o%p%q%V$r%s%# e   ",
"  @ # t%u%$ # $ # # # # v%w%x%y%z%A%B%C%D%E%E%E%E%F%G%H%I%J%K%L%M%N%O%P%Q%R%S%T%q%U%V%W%X%$ e   ",
"  @ # Y%Z%`% &.&+&@&# # $ $ $ $ $ $ $ $ $ $ $ # # # # # # #&$&%&&&*&=&-&;&>&q%q%,&'&)&!&$ $ e   ",
"  @ # $ #&~&{&]&^&/&(&_&:&<&[&# $ $ $ $ $ $ $ # }#}&|&1&2&3&4&5&V%>&q%q%>&6&7&8&9&%&$ $ $ $ e   ",
"  @ # # # $ 0&u%a&b&c&d&e&f&g&h&i&j&k&l&l&m&j&n&o&p&q&r&}%s&t&u&T%v&w&x&=&y&z&A&# $ $ $ $ $ e   ",
"  @ # # $ $ # $ # > B&C&D&E&F&G&H&I&J&K&L&M&N&O&P&Q&R&S&o&T&U&V&W&X&|&Y&c$# # # # $ $ $ $ $ e   ",
"  @ # # # $ # $ # # # # $ $ $ $ # Z&`& * *.*+*+*@* * *#*$*).# # # # # # # # # # # $ $ $ $ $ %*  ",
"    ! e e e e e e e e e e e e e e e e e e e e e e e e e e e e e e e e e e e e e e e e e e e &*  ",
"                                                                                                ",
"                                                                                                ",
"                                                                                                ",
"                                                                                                ",
"                                                                                                ",
"                                                                                                ",
"                                                                                                "};
