/* XPM */
static char * doall_xpm[] = {
"48 60 38 1",
" 	c None",
".	c #000000",
"+	c #FFFFFF",
"@	c #FDFDFD",
"#	c #E8E8E8",
"$	c #999999",
"%	c #0D0D0D",
"&	c #1B1B1B",
"*	c #A6A6A6",
"=	c #A3A3A3",
"-	c #121212",
";	c #F3F3F3",
">	c #4C4C4C",
",	c #DBDBDB",
"'	c #FBFBFB",
")	c #F5F5F5",
"!	c #959595",
"~	c #F6F6F6",
"{	c #F2F2F2",
"]	c #EAEAEA",
"^	c #494949",
"/	c #070707",
"(	c #8C8C8C",
"_	c #FCFCFC",
":	c #CDCDCD",
"<	c #1A1A1A",
"[	c #A2A2A2",
"}	c #474747",
"|	c #060606",
"1	c #F4F4F4",
"2	c #303030",
"3	c #393939",
"4	c #9B9B9B",
"5	c #4D4D4D",
"6	c #DCDCDC",
"7	c #BFBFBF",
"8	c #8F8F8F",
"9	c #FAFAFA",
"................................................",
"................................................",
"........................+..............+..+.....",
"........+@#$%...........+..+...........+..+..+..",
"........+.&*=..............+...........+..+..+..",
"........+..-;..>,',>....+.+++.....++)!.+..+..~..",
"........+..-{..]^/^]....+..+......(~+_.+..+..:..",
"........+.<=[..]}|}]....+..@|.....123+.+..+.....",
"........+@]4%..5,_65....+..7+.....89++.+..+..+..",
"................................................",
"................................................",
"................................................",
"                                                ",
"                                                ",
"                                                ",
"                                                ",
"                                                ",
"                                                ",
"                                                ",
"                                                ",
"                                                ",
"                                                ",
"                                                ",
"                                                ",
"                                                ",
"                                                ",
"                                                ",
"                                                ",
"                                                ",
"                                                ",
"                                                ",
"                                                ",
"                                                ",
"                                                ",
"                                                ",
"                                                ",
"                                                ",
"                                                ",
"                                                ",
"                                                ",
"                                                ",
"                                                ",
"                                                ",
"                                                ",
"                                                ",
"                                                ",
"                                                ",
"                                                ",
"                                                ",
"                                                ",
"                                                ",
"                                                ",
"                                                ",
"                                                ",
"                                                ",
"                                                ",
"                                                ",
"                                                ",
"                                                ",
"                                                "};
