/* XPM */
static char * ripperX_xpm[] = {
"133 49 186 2",
"  	c None",
". 	c #020204",
"+ 	c #2A5284",
"@ 	c #162A44",
"# 	c #427AC4",
"$ 	c #223E64",
"% 	c #3666A4",
"& 	c #264A74",
"* 	c #0A162C",
"= 	c #325E94",
"- 	c #1E365C",
"; 	c #3E72AC",
"> 	c #4A8EDC",
", 	c #122234",
"' 	c #2A529C",
") 	c #22428C",
"! 	c #3A6EAC",
"~ 	c #162A64",
"{ 	c #4686CC",
"] 	c #264A94",
"^ 	c #264674",
"/ 	c #0E1E2C",
"( 	c #2E5A9C",
"_ 	c #1A324C",
": 	c #3666B4",
"< 	c #1E3674",
"[ 	c #1E3E84",
"} 	c #325EAC",
"| 	c #12224C",
"1 	c #060E14",
"2 	c #2E5A8C",
"3 	c #162A54",
"4 	c #529AE4",
"5 	c #4682C4",
"6 	c #264A84",
"7 	c #3E72C4",
"8 	c #2A5294",
"9 	c #427EC4",
"0 	c #366AA4",
"a 	c #0E1A2C",
"b 	c #223A5C",
"c 	c #2E569C",
"d 	c #22429C",
"e 	c #0E1E3C",
"f 	c #2E5AAC",
"g 	c #366294",
"h 	c #1E3A5C",
"i 	c #5296E4",
"j 	c #3A6EBC",
"k 	c #4A8AD4",
"l 	c #2A4E94",
"m 	c #26427C",
"n 	c #12264C",
"o 	c #0A121C",
"p 	c #162E44",
"q 	c #224264",
"r 	c #5292E4",
"s 	c #122644",
"t 	c #366ABC",
"u 	c #1E3A74",
"v 	c #22427C",
"w 	c #3262B4",
"x 	c #162E54",
"y 	c #2A4E84",
"z 	c #467ED4",
"A 	c #16265C",
"B 	c #060A14",
"C 	c #2A4E7C",
"D 	c #0E162C",
"E 	c #3E76BC",
"F 	c #4E92DC",
"G 	c #2A52AC",
"H 	c #26468C",
"I 	c #1A3264",
"J 	c #4A86CC",
"K 	c #264AA4",
"L 	c #325A9C",
"M 	c #060E24",
"N 	c #569EEC",
"O 	c #3E76C4",
"P 	c #2E568C",
"Q 	c #467EC4",
"R 	c #3A6AAC",
"S 	c #121E3C",
"T 	c #16264C",
"U 	c #020614",
"V 	c #2E5684",
"W 	c #223E74",
"X 	c #3666AC",
"Y 	c #2A4A74",
"Z 	c #325EA4",
"` 	c #1A366C",
" .	c #122244",
"..	c #3E6EB4",
"+.	c #264684",
"@.	c #121E2C",
"#.	c #223E7C",
"$.	c #0A0E14",
"%.	c #325A8C",
"&.	c #569AE4",
"*.	c #2A4A84",
"=.	c #3A6A9C",
"-.	c #0E1A3C",
";.	c #2E56AC",
">.	c #26469C",
",.	c #325AB4",
"'.	c #3662A4",
").	c #1E3A6C",
"!.	c #3E6EC4",
"~.	c #1A2E44",
"{.	c #3A6AB4",
"].	c #223A74",
"^.	c #3662B4",
"/.	c #1A2E54",
"(.	c #1A327C",
"_.	c #4276CC",
":.	c #2E527C",
"<.	c #162A4C",
"[.	c #427ACC",
"}.	c #223E6C",
"|.	c #3A669C",
"1.	c #264A7C",
"2.	c #0A1634",
"3.	c #325E9C",
"4.	c #1E3664",
"5.	c #3E72BC",
"6.	c #4E8EDC",
"7.	c #12223C",
"8.	c #2A52A4",
"9.	c #4682D4",
"0.	c #2A4EA4",
"a.	c #2E528C",
"b.	c #4276B4",
"c.	c #162644",
"d.	c #2E52AC",
"e.	c #2A4AA4",
"f.	c #060614",
"g.	c #224294",
"h.	c #3A6EB4",
"i.	c #4686D4",
"j.	c #264A9C",
"k.	c #26467C",
"l.	c #2E5AA4",
"m.	c #1A3254",
"n.	c #3666BC",
"o.	c #1E367C",
"p.	c #325EB4",
"q.	c #162A5C",
"r.	c #264A8C",
"s.	c #427ECC",
"t.	c #0E1A34",
"u.	c #2E56A4",
"v.	c #0E1E44",
"w.	c #2E5AB4",
"x.	c #36629C",
"y.	c #1E3A64",
"z.	c #3A6EC4",
"A.	c #4A8ADC",
"B.	c #122654",
"C.	c #0A1224",
"D.	c #22426C",
"E.	c #1E3A7C",
"F.	c #224284",
"G.	c #162E5C",
"H.	c #2A4E8C",
"I.	c #0E1634",
"J.	c #4E92E4",
"K.	c #264694",
"L.	c #1A326C",
"M.	c #4A86D4",
"N.	c #325AA4",
"O.	c #3E76CC",
"P.	c #2E5694",
"Q.	c #467ECC",
"R.	c #121E44",
"S.	c #162654",
"T.	c #121E34",
"U.	c #223E84",
"V.	c #0A0E1C",
"W.	c #325A94",
"X.	c #569AEC",
"Y.	c #3A6AA4",
"Z.	c #2646A4",
"`.	c #1A2E4C",
" +	c #3A6ABC",
".+	c #3662BC",
"                                                                                                                                                                                                                                                                          ",
"                                                                                                                                                                                                                                                                          ",
"                                                                                                                                                                                                                                                                          ",
"                                                                                                                                                                                                                                                                          ",
"                                                                                                                                                                                                                                                                          ",
"                                                                                                                                                                                                                                                                          ",
"                                                                                                                                                                                                                                                                          ",
"                                                                                                                                                                                                                                                                          ",
"                                                                                                                                                                                                                                                                          ",
"                                                      . . . . .                                                                                                                                                     . . . . . . .           . . . . . .                   ",
"                                                    . a c.c.c.@ .                                                                                                                                                   x v v v #.W C..       B < ` L.L.L.A .                 ",
"                                                    . *.7 O _.[..                                                                                                                                                   . u.^.w p.p.H .       . U.0.0.K K Z..                 ",
"                                                    . X 7 O O.[..                                                                                                                                                   . 4.^.p.p.p.,.B .   . < 0.0.0.K K S..                 ",
"                                                    . 7 7 O O.y .                                                                                                                                                   . * ^.p.p.,.,.T . . -.G 0.0.e.K L..                   ",
"                          . . . . .   . . . . . . . . . . . . .       . . . . . .   . . . . . . . .         . . . . . .   . . . . . . . .           . . . . . . . . . . . .           . . . . . .   . . . . . .       . u.p.p.,.w.F.. B G G 0.0.e.) .                     ",
"                        . F.f ,.p.p.7.4..+n.n. + +B z.!.7 7 : 1 .   . ^ Q.9.9.9.& . %.A.A.6.6.6.g V..     . :.4 4 4 &.V . =.N N N N X.|.o .       . , g g J.F 6.6.6.# W.%./ .       . - [.[._.O.y c.X !.z.j  +7..     . 3 p.p.,.f ;.C.] G G 0.0.g.B                       ",
"                        . F.f ,.p.p.u.^..+n.n.t 8 . 6 z.7 7 7 c..   . a s.z 9.9.% ~.M.A.A.A.6.6.6.Q V..   . , i i 4 4 b._ 4 4 4 4 4 4 4 J o .   . _ i J.J.F 6.6.6.A.A.A.M.M./ .     . - [.[._.O 7 X 7 z.z. + +B .     . B p.p.,.f ;.j.d.G 0.0.0.C..                       ",
"                        . ;.f w.,.p.p.w ^.n.n.n.).. } z.!.7 7 .     . @ s.Q.z 9.^ E M.M.A.A.A.6.6.6.$ .   . _ i i i i :.J 4 4 4 4 4 4 i i q . . , J.J.F F 6.6.6.A.A.A.M.M.i.P .     . a.[.[.O.O 7 7 !.z.z. +Z .         . r.,.w.f ;.;.d.G 0.0.t..                         ",
"                      . C.;.;.f ,.p.p.w ^..+n.l B .  +z.z.7 X .     . + [.s.Q.9.5.9.i.M.M.A.A.A.6.6.= .   . g r i i i { i i i i i i i i i g . . ; J.F F 6.9 = `.$ Y.M.M.i.9.9..     . h.[._.O 7 7 7 z.z. +} 7..         . <.,.f ;.;.d.G G 0.L..                           ",
"                      . n ;.;.f ,.' B . . . . . . 7. +z.z.!.*..     . {.[.s.s.z '.h @ p & M.A.A.A.6.= .   . 5 J.J.J.r ; q _ _ :.i i i i r g . , F F 6.6.9 V.. . . . 0 i.9.9.9..   . 1 [._.O.O 7 c.. . . . . .             . ,.f ;.;.d.G 0.` .                             ",
"                      . < ;.;.;.w.<..           . y. + +z.z.c..   . 1 [.[.[.s.'.. . . . . h M.A.A.A.= . . V.6.F F F ; . . . . . q J.J.J.J.g . g 6.6.6.6.$ .       . p 9.9.9.z .   . @ [._.O 7 ( .                         . u ;.;.;.d.G K.B                               ",
"                      . G d.;.;.f C..           . k. + +z.z.a .   . c._.[.[.[.^ .       . p M.M.A.A.= . . `.6.6.6.6.C .       . _ F F F F = . 6.6.6.> A.. . . . . . @ 9.9.z ...   . + _.O.O 7 }..                         . +.;.;.d.G G t..                               ",
"                    . C.G d.;.;.f .             . n. + + +z..     . y O._.[.[.@ .       . @ i.M.M.M.`.. . = > 6.6.6.`..       . `.6.6.6.6.`.`.6.> A.A.# W.%.%.%.2 P 5.9.z Q.a..   . {.O.O 7 7 c..                       . ].f ;.;.d.G 0.` .                               ",
"                    . t.G G ;.;.u .           . * n.n. + +1..     . 7 O O._.[..         . h 9.i.M.M.@.. . A.A.A.A.6..         . $ 6.6.6.6.T.= A.A.A.A.k M.M.M.i.9.9.9.z Q.s.- .   . O.O 7 7 7 .                       . T f ;.;.;.G G 0.0..                               ",
"                    . ` 8.G d.;.T .           . 3 n.n.t  +/..   . a 7 7 O O.3..         . '.9.9.9.i.. . @.k A.A.A.R .         . ! A.A.A.A.. R A.A.k M.M.M.i.9.9.9.9.z Q.s.[.a   . c.O 7 7 7 P..                     . S ,.f ;.;.d.G 8.0.0.t..                             ",
"                    . K.0.G G ;.e .           . v n.n.n. +7..   . m.7 7 O O D..       . a z 9.9.9.P . . h M.M.M.A.Y .       . @.A.A.A.A.W.. A.M.M.M.E p p @ @ @ @ @ @ @ @ a .   . D.O 7 7 !.6 .                   . B ,.f ;.;.;.G G 0.0.e.L..                             ",
"                    B 0.0.8.G d..             . u..+n.n.n..     . 6 7 7 7 O c..       . ^ s.Q.z 9.h . . 2 i.M.M.M.~..       . Y A.k k M.b $.M.M.M.i.2 . . . . . . . . . . .     . L 7 7 7 z.s .                 . B ' w.f ;.;.] G.8.0.0.K K .                             ",
"                  . t.0.0.0.G U..           . B w ^..+n.l .     . z.z.7 7 7 .         . [.s.s.Q.z 1 . . 9.9.9.i.i..         . M.M.M.M.M.1 ~.i.i.9.9.^ .                         . 7 7 7 z.z.B .                 . H ,.f ;.;.] B B 0.0.0.K K R..                           ",
"                  . L.K 0.0.8.G..           . S p.w ^..+m .   . D z.z.z.7 c .       . D.[.[.[.s.a.. . / 9.9.9.9.% .       . & i.i.i.i.2 . @ 9.9.9.9.h .             . . a .   . c.7 7 z.z.} .                 . W ,.f ;.;.;.-.. . [ 0.K K Z.o..                           ",
"                  . o.K e.0.0.-..           . I p.p.^.^.7..   . /. +z.z.z.}.. . . . c._.[.[.[.[.a . . - z z 9.9.^ . . . . @ 9.9.9.9.9./ . @ 9.9.9.z 5.a . . . . . . @ 3.1 .   . m.7 z.z.z.k..               . <.,.,.f ;.;.-..   . | e.K K Z.>.U                           ",
"                  . Z.K K 0.0..             . H p.p.w ^.B .   . 8  + +z.z.z.7 7 7 7 O O._._.[.+ .   . x.s.Q.Q.z z 9.9.9.9.9.9.9.9.9.P . . / z z Q.Q.s.s.s.[.[.[.[._._.: .     . *.z.z.z. +7..             . S ,.,.f ;.;.u .       B K K Z.>.>.v..                         ",
"                . I.Z.K K e.K..             . ,.p.p.p.w .     . n. + + +z.z.z.!.7 7 7 O O O.{.1 .   . [.[.s.s.s.s.Q.Q.Q.z z z z z 5.1 .   . s.s.s.s.[.[.[.[.[.[._.O.O y .     . z.z.z. + +D .           . B p.,.f ;.;.F..         . E.K Z.>.d (..                         ",
"                . B.>.Z.K K L..           . e w.,.p.p.#..   . 7.n.n. + + +j z.z.!.7 7 7 7 O c..   . @ [.[.[.[.[.s.s.s.s.s.s.s.s.s.@ .     . ^ [.[.[.[.[.[._._.O.O O 7 c..     a z.j  + + +.             . ' ,.w.f ;.j.B           .  .Z.>.>.d d M .                       ",
"                . B.>.>.K K q..           . e f ,.,.p.r..   . 4.n.n.n. + + + +z.z.z.7 7 y 1 .     . D._.[.[.[.[.[.[.[.[.[.[.[.a.1 .       . 1 3.[.[.[._._.O.O O 7 7 y .       D  + + + +N..             S ,.,.f ;.;.] .             f.>.>.d d d ~ .                       ",
"                  U I.I.I.t.t..             . e e S S S .   . H..+n.n.n.7.. . . . . . . . .       . L O.O._._.@ . . . . . . . . .           . . . c.c.c.c.c.c.c.c.a .         . 7.7.7.7.7.B             . C.e e e e -.B               U I.2.2.2.2.M                       ",
"                    . . . . .                 . . . . .     . w ^..+n.n.B .                       . 7 O O O O.1 .                                 . . . . . . . . .             . . . . . .               . . . . . .                   . . . . . .                       ",
"                                                          . S p.w ^..+l..                       . c.7 7 7 7 X .                                                                                                                                                           ",
"                                                          . I p.p.w ^.v .                       . }.7 7 7 7 y .                                                                                                                                                           ",
"                                                          . S p.p.p.w 3 .                       . s z.z.!.7 m..                                                                                                                                                           ",
"                                                            . . . . . .                           . . . . . .                                                                                                                                                             ",
"                                                                                                                                                                                                                                                                          ",
"                                                                                                                                                                                                                                                                          ",
"                                                                                                                                                                                                                                                                          ",
"                                                                                                                                                                                                                                                                          ",
"                                                                                                                                                                                                                                                                          ",
"                                                                                                                                                                                                                                                                          ",
"                                                                                                                                                                                                                                                                          ",
"                                                                                                                                                                                                                                                                          ",
"                                                                                                                                                                                                                                                                          "};
