/* XPM */
static char * ripperX_icon_xpm[] = {
"48 48 199 2",
"  	c None",
". 	c #030205",
"+ 	c #330211",
"@ 	c #76064E",
"# 	c #AB08A0",
"$ 	c #7109AE",
"% 	c #520BD5",
"& 	c #0E1AD5",
"* 	c #1478ED",
"= 	c #2E78EC",
"- 	c #944AD5",
"; 	c #F01EC4",
"> 	c #9808A3",
", 	c #470318",
"' 	c #68032A",
") 	c #8C0664",
"! 	c #130BDC",
"~ 	c #1798EB",
"{ 	c #3487EB",
"] 	c #4F39E3",
"^ 	c #EF116A",
"/ 	c #EB4D21",
"( 	c #B00C0E",
"_ 	c #8908A5",
": 	c #6E0BD2",
"< 	c #1168EE",
"[ 	c #1A88EC",
"} 	c #6F39DE",
"| 	c #AB2FCE",
"1 	c #EB0EC0",
"2 	c #CE4E0D",
"3 	c #17030A",
"4 	c #0E48DF",
"5 	c #36A7EF",
"6 	c #504AEB",
"7 	c #CB3DD6",
"8 	c #EB2E48",
"9 	c #EE1D35",
"0 	c #B01CDF",
"a 	c #D13C4B",
"b 	c #B54D06",
"c 	c #944C08",
"d 	c #3399F2",
"e 	c #4F96F3",
"f 	c #EA3D99",
"g 	c #CE3070",
"h 	c #6E49BA",
"i 	c #D05B11",
"j 	c #B75B05",
"k 	c #B96804",
"l 	c #B87611",
"m 	c #2E1904",
"n 	c #59031D",
"o 	c #320CE3",
"p 	c #6576E3",
"q 	c #F54ECF",
"r 	c #E83C66",
"s 	c #8B3BD1",
"t 	c #D16C10",
"u 	c #D17A11",
"v 	c #593604",
"w 	c #915DD3",
"x 	c #F75BCF",
"y 	c #D13B9A",
"z 	c #EB5C18",
"A 	c #D2871F",
"B 	c #ED7A21",
"C 	c #963B05",
"D 	c #A80875",
"E 	c #51B7F4",
"F 	c #7185F7",
"G 	c #F04D59",
"H 	c #E1961E",
"I 	c #EE8922",
"J 	c #ED6C1E",
"K 	c #067640",
"L 	c #350AA9",
"M 	c #920BD5",
"N 	c #AE0BCC",
"O 	c #739AF0",
"P 	c #966CE7",
"Q 	c #F45CA2",
"R 	c #A84CC1",
"S 	c #F29824",
"T 	c #0F5ADC",
"U 	c #3A48E6",
"V 	c #7317C8",
"W 	c #3059F3",
"X 	c #5AC2EC",
"Y 	c #CD7AD4",
"Z 	c #D16CDE",
"` 	c #8875C7",
" .	c #F34B98",
"..	c #BC4C78",
"+.	c #17E0E2",
"@.	c #18A4E0",
"#.	c #19AFE5",
"$.	c #5359E3",
"%.	c #F25B59",
"&.	c #EB3D33",
"*.	c #B89C10",
"=.	c #15C5DF",
"-.	c #15D5DA",
";.	c #4B68E2",
">.	c #BAB7F7",
",.	c #D196E6",
"'.	c #F3A739",
").	c #F49861",
"!.	c #AB6AEC",
"~.	c #F37B9E",
"{.	c #F77BDA",
"].	c #F38768",
"^.	c #CC0BC7",
"/.	c #FEEDEC",
"(.	c #FAC8AC",
"_.	c #F887E0",
":.	c #F999A4",
"<.	c #F6A867",
"[.	c #F5C74A",
"}.	c #F4B83C",
"|.	c #ED2DA0",
"1.	c #D36D6A",
"2.	c #B6892E",
"3.	c #9E627C",
"4.	c #40C2E5",
"5.	c #34E2DA",
"6.	c #36D6D3",
"7.	c #5E2AD8",
"8.	c #8F89FA",
"9.	c #B99AE2",
"0.	c #F997E0",
"a.	c #FAB8AB",
"b.	c #F9D878",
"c.	c #F9C876",
"d.	c #0A181C",
"e.	c #D4A941",
"f.	c #D74D6A",
"g.	c #B48284",
"h.	c #A5AD6F",
"i.	c #7DAB87",
"j.	c #4AD6C4",
"k.	c #FCD9E7",
"l.	c #FAA7EA",
"m.	c #FAA9A1",
"n.	c #FAD8AB",
"o.	c #D8B747",
"p.	c #F06B64",
"q.	c #D17C6E",
"r.	c #FAE6AD",
"s.	c #CFC741",
"t.	c #F6B96A",
"u.	c #F9F9B3",
"v.	c #352C04",
"w.	c #F1ED34",
"x.	c #918A07",
"y.	c #F47B6B",
"z.	c #F8E875",
"A.	c #000000",
"B.	c #000401",
"C.	c #000100",
"D.	c #8E6C08",
"E.	c #FBC9DD",
"F.	c #75A8F7",
"G.	c #00D64A",
"H.	c #F78A9F",
"I.	c #723104",
"J.	c #F23BCC",
"K.	c #3BB7F3",
"L.	c #000501",
"M.	c #A2A2FC",
"N.	c #BDFACA",
"O.	c #FAB7E9",
"P.	c #1409AA",
"Q.	c #000301",
"R.	c #D9E7A6",
"S.	c #5009A8",
"T.	c #000300",
"U.	c #F4FBEB",
"V.	c #0E28D4",
"W.	c #000802",
"X.	c #2E033C",
"Y.	c #000C04",
"Z.	c #001206",
"`.	c #000702",
" +	c #000200",
".+	c #000903",
"++	c #000803",
"@+	c #EC101F",
"#+	c #001106",
"$+	c #A79496",
"%+	c #E5CACD",
"&+	c #E7C2C4",
"*+	c #F3C3C4",
"=+	c #F1BABB",
"-+	c #E3A9A7",
";+	c #D49EA0",
">+	c #917E81",
",+	c #000A03",
"'+	c #001406",
"                                                                                                ",
"                                                                                                ",
"                                                                                                ",
"                                                                                                ",
"                                                                                                ",
"                                                            . . . . . . . . . . . .             ",
"                                                        . . + @ # $ % & * = = - ; > .           ",
"                                                    . . , ' @ ) $ % ! * ~ { ] ; ^ / ( +         ",
"                                                      . ' @ ) _ : & < [ = } | ; 1 : 2 2 3       ",
"                                          .           . ' @ > _ % 4 ~ 5 6 7 8 9 0 a b b c .     ",
"                                      . . + . . .   . ' @ ) $ % 4 d e - f g h a i b j k l m .   ",
"                                  . . @ n n . .     . ' ) > % o = e p q r s / / b j t l u v .   ",
"                                . > > ) @ . .         . > : & d e w x y a z i i t A A B B C .   ",
"                            . . $ _ # D ) .         . ) _ : 5 E F x G a z i t B H I J B ; K .   ",
"                          . $ L : M N # ) . .     . @ > % = O P Q R z z J I S S J z s y J 3     ",
"                        . T T U V M M # D . .     . . . W X Y Z ` J z I S S B G  .G r r ...     ",
"                      . +.@.#.~ $.: M N # .         . . 5 p Z Q J J I S S G x %.%.G  .&.*..     ",
"                    . =.=.-.+.-.* ;.: N . .       . Z >.,.p z J I '.).!.Z ~.{.~.~.].].I .       ",
"                  . 9 @.5 #.=.+.=.@.] N ^..     . . . . /.(.B '.'.Z {.~._.:.:.<.<.[.}.}..       ",
"                . |.1.2.3.;.4.5.6.5.5.7.. .         . . (./.9 8._.9.0.a.(.b.b.b.c.[.}.d.        ",
"              . e.z J z f.1.g.h.i.j.4.. .           . . b.k.G l.m.n.n.b.b.b.b.c.[.}.2..         ",
"            + t B '.o.S p.].].p.1.q./ . .           . 3 /.n.r.n.n.n.n.b.b.b.c.c.[.}..           ",
"          . A S S o.s.).].t.t.].].B /..           . d.2.u.c.n.n.n.n.n.(.(.c.t.t.t.v.            ",
"        . }.'.'.'.<.t.t.c.c.c.c.[.w.p.. 3       . , u.k.<.(.(.(.(.(.(.(.(.t.t.<.. .             ",
"      . x.'.<.[.[.c.c.b.b.b.n.r.[./.B 3 3       . . >.y.(.:.m.a.(.u.(.a.m.t.b.G .               ",
"      . [.[.[.b.b.b.z.b.r.u.r.r.w./.8   .         . 5 {.m.m.A.A.A.A.B.m.a.<.<..   A.A.C.        ",
"    . D.[.b.b.b.z.b.n.(.n.u.E.u.8 k.  .           . ~ 4.F.A.G.G.G.G.G.B.H.I..   A.G.G.G.C.      ",
"    3 b.b.b.b.b.(.(.m.a.r.u.r.r.J.w..         . . & T ~ K.X A.A.G.G.A.H.. .     A.G.G.L.        ",
"  . A c.<.H.M.u.N.r.E.u.r.r.(.n.O.a..           . L P.4 [ 5 E A.G.G.Q.d.      C.G.G.C.          ",
"  . y.].:.(.u.u.r.R.n.r.r.(.a.(././..           . S.P.P.T [ K.Q.T.G.G.Q.    A.G.C.A.            ",
"  . :.m.R.a.O.a.a.(.n.u.O.(.k.U./.    . .       . # S.L V.4 [ 5 C.G.G.C.  A.G.A.                ",
"  . :.a.m.m.n.r.r.r.n.n.E././././././..       . . ^._ L P.& T * W.A.G.G.A.G.A.                  ",
"  + a.a.a.r.r.u.r.n.n.k././././././..           . ^.> S.L & . .   A.G.G.G.A.                    ",
"  + m.u.(.n.n.a.n.E./././././././..           . J.1 ^._ X..       A.A.G.G.B.                    ",
"  3 r.n.n.n.(.E.E././././././././.. . .     . . . ; 1 3 .         Y.G.Z.G.G.B.                  ",
"  . r.n.a.E.E.k././././././././././..         . . . .           `.G.Y.A.G.G. +                  ",
"  . J k.n.(./.U./././././././././.. .         .               A.G.`.  A..+G.G.++                ",
"    . j /.U./././././././././././..                         Q.G.A.      A.G.G.G.++              ",
"      . @+k./././././././././././..                       #+G.G. +      C.A.G.G.B.              ",
"        . . $+%+&+*+=+-+;+>+3 . . .                     ,+G.G.A.          A.G.G.G.A.            ",
"            . . . . . . . .                           A.G.G.G.G.A.        A.G.G.G.G.A.          ",
"                                                      A.'+A.A.A.          A.A.A.A.A.            ",
"                                                                                                ",
"                                                                                                ",
"                                                                                                ",
"                                                                                                ",
"                                                                                                ",
"                                                                                                "};
