/* XPM */
static char * s_button_checked_xpm[] = {
"14 14 5 1",
" 	c None",
".	c #010101",
"+	c #909890",
"@	c #01DB28",
"#	c #01A807",
"              ",
"          ... ",
"        +.@@. ",
"        .@#.  ",
"       .@#.   ",
"      .@@..   ",
"  ..  .@#.    ",
" .@@..@#.     ",
" .@@.@@.      ",
" .#@@@#.      ",
"  .#@#.       ",
"  .##.        ",
"   ...        ",
"              "};
