/* XPM */
static char * s_button_unchecked_xpm[] = {
"14 14 4 1",
" 	c None",
".	c #3E3E3E",
"+	c #959595",
"@	c #676767",
"              ",
"              ",
"              ",
"              ",
"              ",
"  ..........  ",
"  .++++++++.  ",
"  .@@@@@@@@.  ",
"  ..........  ",
"              ",
"              ",
"              ",
"              ",
"              "};
