/* XPM */
static char * s_play_button_enabled_xpm[] = {
"14 14 38 1",
" 	c None",
".	c #010101",
"+	c #050505",
"@	c #202020",
"#	c #0A0A0A",
"$	c #1C1C1C",
"%	c #000000",
"&	c #0B0B0B",
"*	c #323232",
"=	c #303030",
"-	c #282828",
";	c #111111",
">	c #555555",
",	c #606060",
"'	c #494949",
")	c #2B2B2B",
"!	c #141414",
"~	c #666666",
"{	c #828282",
"]	c #727272",
"^	c #545454",
"/	c #383838",
"(	c #121212",
"_	c #1E1E1E",
":	c #656565",
"<	c #818181",
"[	c #565656",
"}	c #3B3B3B",
"|	c #212121",
"1	c #131313",
"2	c #5B5B5B",
"3	c #464646",
"4	c #2C2C2C",
"5	c #262626",
"6	c #020202",
"7	c #2F2F2F",
"8	c #060606",
"9	c #151515",
"              ",
"              ",
"  .+@         ",
"  .#$%%       ",
"  %&*=-%%     ",
"  %;>,')@%%   ",
"  %!~{]^/@(_  ",
"  %!:<][}|(_  ",
"  %1^2345%%   ",
"  6175@%%     ",
"  %89%%       ",
"  %%_         ",
"              ",
"              "};
