/* XPM */
static char * s_play_button_disabled_xpm[] = {
"14 14 17 1",
" 	c None",
".	c #AAAAAA",
"+	c #ABABAB",
"@	c #B1B1B1",
"#	c #ACACAC",
"$	c #B5B5B5",
"%	c #B4B4B4",
"&	c #B3B3B3",
"*	c #AEAEAE",
"=	c #BDBDBD",
"-	c #BFBFBF",
";	c #BABABA",
">	c #C1C1C1",
",	c #C7C7C7",
"'	c #C4C4C4",
")	c #B7B7B7",
"!	c #B2B2B2",
"              ",
"              ",
"  .+@         ",
"  .#@..       ",
"  .#$%&..     ",
"  .*=-;&@..   ",
"  .*>,'=)@*@  ",
"  .*>,'=)@*@  ",
"  .*=-;%!..   ",
"  .*%!@..     ",
"  .+*..       ",
"  ..@         ",
"              ",
"              "};
